<?xml version="1.0" encoding="UTF-8"?> <svg xmlns="http://www.w3.org/2000/svg" width="173" height="43" viewBox="0 0 173 43" fill="none"><g clip-path="url(#clip0_216_1778)"><path d="M6.39983 0.136719H0V42.8636H12.7972V29.8714L6.39983 0.136719Z" fill="#00AA65"></path><path d="M52.143 0.136719L47.7701 23.9389L41.3654 0.136719H29.2823L22.8923 23.9708L18.5268 0.136719H12.7969V29.5952L15.6514 42.8635H28.1713L35.3312 16.1452L42.6372 42.8635H55.1571L56.8129 34.373C56.7368 34.2576 56.6607 34.1398 56.5871 34.0196C54.5209 30.7338 53.4878 26.5278 53.4878 21.3991C53.4878 14.5649 55.3061 9.31107 58.9404 5.64002C60.3661 4.20199 62.0225 3.04374 63.912 2.17262L64.2066 0.136719H52.143Z" fill="#006CAD"></path><path d="M12.7978 0.136719V29.8714L6.40039 0.136719H12.7978Z" fill="#006335"></path><path d="M82.4903 25.2477C81.9259 27.8586 81.018 29.8512 79.7689 31.223C78.5199 32.5947 76.6745 33.2818 74.2304 33.2818C71.7127 33.2818 69.7594 32.4328 68.368 30.7322C66.9791 29.0341 66.2822 25.8955 66.2822 21.3165C66.2822 17.6209 66.8662 14.9069 68.0294 13.1818C69.5705 10.8554 71.7888 9.68984 74.682 9.68984C75.9604 9.68984 77.1163 9.95487 78.1494 10.48C79.1825 11.0051 80.0561 11.7585 80.7702 12.7351C81.2021 13.3167 81.6168 14.2369 82.0094 15.4958L93.2852 12.9879C91.8373 8.62974 89.6239 5.39794 86.6473 3.29247C83.6682 1.18699 79.5776 0.136719 74.3728 0.136719C70.3287 0.136719 66.8417 0.813994 63.9117 2.17347L56.8125 34.3739C58.8345 37.4707 61.2148 39.6473 63.9583 40.9062C66.8049 42.2117 70.4735 42.8644 74.9642 42.8644C78.6647 42.8644 81.7149 42.327 84.11 41.2571C86.505 40.1872 88.5123 38.5995 90.127 36.4941C91.7441 34.3886 92.9269 31.7678 93.6778 28.6292L82.4903 25.2477Z" fill="#F15D22"></path><path d="M63.9126 2.17383L56.8134 34.3742C56.7373 34.2589 56.6612 34.1411 56.5876 34.0209C54.5214 30.7351 53.4883 26.529 53.4883 21.4004C53.4883 14.5662 55.3066 9.31233 58.9409 5.64128C60.3666 4.20325 62.023 3.04495 63.9126 2.17383Z" fill="#9F3321"></path><path d="M102.885 1.8457H105.194V11.9729H102.885V1.8457Z" fill="#00AA65"></path><path d="M107.248 4.56471H109.302V5.69776C109.67 5.00391 110.463 4.39453 111.568 4.39453C112.545 4.39453 113.282 4.80543 113.636 5.68358C114.231 4.79126 115.194 4.39453 116.129 4.39453C117.503 4.39453 118.565 5.25878 118.565 7.22753V11.9724H116.525V7.45411C116.525 6.50513 116.101 6.08008 115.364 6.08008C114.571 6.08008 113.933 6.59008 113.933 7.59571V11.9724H111.894V7.45411C111.894 6.50513 111.455 6.08008 110.732 6.08008C109.939 6.08008 109.302 6.59008 109.302 7.59571V11.9724H107.248L107.248 4.56471Z" fill="#00AA65"></path><path d="M120.322 4.56471H122.376V5.69776C122.744 5.00391 123.538 4.39453 124.642 4.39453C125.62 4.39453 126.356 4.80543 126.71 5.68358C127.305 4.79126 128.268 4.39453 129.203 4.39453C130.577 4.39453 131.639 5.25878 131.639 7.22753V11.9724H129.6V7.45411C129.6 6.50513 129.175 6.08008 128.438 6.08008C127.645 6.08008 127.008 6.59008 127.008 7.59571V11.9724H124.968V7.45411C124.968 6.50513 124.529 6.08008 123.807 6.08008C123.013 6.08008 122.376 6.59008 122.376 7.59571V11.9724H120.322L120.322 4.56471Z" fill="#00AA65"></path><path d="M133.297 2.43921C133.297 1.80201 133.807 1.32031 134.458 1.32031C135.124 1.32031 135.634 1.80201 135.634 2.43921C135.634 3.07641 135.124 3.55836 134.458 3.55836C133.807 3.55836 133.297 3.07666 133.297 2.43921ZM133.453 4.56396H135.492V11.9717H133.453V4.56396Z" fill="#00AA65"></path><path d="M136.979 12.1282H139.018C139.146 12.7798 139.613 13.2046 140.661 13.2046C141.908 13.2046 142.531 12.5533 142.531 11.3916V10.2727C142.12 10.9951 141.242 11.6465 140.151 11.6465C138.353 11.6465 136.922 10.3011 136.922 8.10548V8.00636C136.922 5.88186 138.338 4.39453 140.18 4.39453C141.384 4.39453 142.106 4.91871 142.531 5.66943V4.56471H144.571V11.3916C144.556 13.5872 143.097 14.7061 140.661 14.7061C138.268 14.7061 137.177 13.658 136.979 12.1282ZM142.588 8.07718V7.97806C142.588 6.71756 141.922 5.95266 140.803 5.95266C139.656 5.95266 139.018 6.77443 139.018 7.99221V8.10548C139.018 9.33791 139.741 10.1028 140.76 10.1028C141.837 10.1028 142.588 9.33791 142.588 8.07718Z" fill="#00AA65"></path><path d="M146.385 4.5647H148.438V5.98095C148.906 4.98975 149.628 4.46532 150.832 4.45117V6.36352C149.317 6.34937 148.438 6.84522 148.438 8.26147V11.9724H146.385V4.5647Z" fill="#00AA65"></path><path d="M151.57 9.91848C151.57 8.19071 153.157 7.53908 155.423 7.53908H156.259V7.24171C156.259 6.36353 155.99 5.88183 155.055 5.88183C154.247 5.88183 153.879 6.29248 153.794 6.93018H151.854C151.981 5.17383 153.369 4.39453 155.182 4.39453C156.995 4.39453 158.284 5.13136 158.284 7.14258V11.9724H156.287V11.0801C155.862 11.6748 155.21 12.1282 154.049 12.1282C152.704 12.1282 151.57 11.4766 151.57 9.91848ZM156.259 9.38041V8.75736H155.466C154.276 8.75736 153.582 9.01223 153.582 9.80521C153.582 10.3435 153.907 10.6978 154.658 10.6978C155.565 10.6978 156.259 10.2019 156.259 9.38041Z" fill="#00AA65"></path><path d="M160.039 4.56471H162.093V5.74023C162.461 5.00391 163.269 4.39453 164.501 4.39453C165.96 4.39453 166.994 5.27296 166.994 7.25586V11.9724H164.94V7.55321C164.94 6.54758 164.543 6.06591 163.637 6.06591C162.759 6.06591 162.093 6.60423 162.093 7.69481V11.9724H160.039V4.56471Z" fill="#00AA65"></path><path d="M169.062 9.77564V6.02222H168.113V4.56347H169.062V2.96289H171.102V4.56347H172.66V6.02222H171.102V9.59154C171.102 10.1865 171.399 10.47 171.923 10.47C172.235 10.47 172.462 10.4275 172.702 10.3281V11.9145C172.419 12.0137 172.009 12.1128 171.456 12.1128C169.898 12.1128 169.062 11.3196 169.062 9.77564Z" fill="#00AA65"></path><path d="M102.035 16.5684H104.358L105.945 23.5652L107.673 16.5684H109.627L111.426 23.6077L113.069 16.5684H115.194L112.729 26.6953H110.392L108.565 19.6985L106.709 26.6953H104.5L102.035 16.5684Z" fill="#00AA65"></path><path d="M115.322 23.083V22.9697C115.322 20.6328 116.98 19.1172 119.133 19.1172C121.045 19.1172 122.744 20.2363 122.744 22.8848V23.4514H117.405C117.461 24.6836 118.127 25.3918 119.246 25.3918C120.195 25.3918 120.662 24.9809 120.79 24.3579H122.73C122.489 25.9585 121.215 26.8506 119.189 26.8506C116.951 26.8506 115.322 25.4485 115.322 23.083ZM120.747 22.1909C120.676 21.0718 120.11 20.5337 119.133 20.5337C118.212 20.5337 117.589 21.1426 117.433 22.1909H120.747Z" fill="#00AA65"></path><path d="M124.146 15.9316H126.186V26.6963H124.146V15.9316Z" fill="#00AA65"></path><path d="M127.604 23.083V22.9697C127.604 20.5762 129.317 19.1172 131.428 19.1172C133.142 19.1172 134.728 19.8679 134.912 21.9927H132.971C132.83 21.1284 132.306 20.7319 131.47 20.7319C130.408 20.7319 129.7 21.5252 129.7 22.9414V23.0547C129.7 24.542 130.365 25.3069 131.513 25.3069C132.334 25.3069 133 24.8252 133.099 23.8765H134.955C134.841 25.6328 133.566 26.8506 131.414 26.8506C129.246 26.8506 127.604 25.5051 127.604 23.083Z" fill="#00AA65"></path><path d="M135.789 23.0688V22.9556C135.789 20.6328 137.474 19.1172 139.698 19.1172C141.922 19.1172 143.593 20.6045 143.593 22.9131V23.0264C143.593 25.3635 141.908 26.8506 139.684 26.8506C137.474 26.8506 135.789 25.3777 135.789 23.0688ZM141.511 23.0405V22.9414C141.511 21.5251 140.845 20.6753 139.698 20.6753C138.565 20.6753 137.885 21.4968 137.885 22.9131V23.0263C137.885 24.4428 138.537 25.2927 139.698 25.2927C140.845 25.2927 141.511 24.4429 141.511 23.0405Z" fill="#00AA65"></path><path d="M144.969 19.2871H147.022V20.4204C147.391 19.7263 148.184 19.1172 149.289 19.1172C150.266 19.1172 151.003 19.5278 151.357 20.4062C151.952 19.5137 152.915 19.1172 153.85 19.1172C155.223 19.1172 156.286 19.9812 156.286 21.9502V26.6948H154.246V22.1767C154.246 21.2275 153.821 20.8027 153.085 20.8027C152.291 20.8027 151.654 21.3125 151.654 22.3183V26.6948H149.615V22.1767C149.615 21.2275 149.176 20.8027 148.453 20.8027C147.66 20.8027 147.022 21.3125 147.022 22.3183V26.6948H144.969L144.969 19.2871Z" fill="#00AA65"></path><path d="M157.59 23.083V22.9697C157.59 20.6328 159.247 19.1172 161.4 19.1172C163.312 19.1172 165.012 20.2363 165.012 22.8848V23.4514H159.672C159.729 24.6836 160.395 25.3918 161.513 25.3918C162.462 25.3918 162.93 24.9809 163.057 24.3579H164.998C164.757 25.9585 163.482 26.8506 161.457 26.8506C159.219 26.8506 157.59 25.4485 157.59 23.083ZM163.015 22.1909C162.944 21.0718 162.377 20.5337 161.4 20.5337C160.48 20.5337 159.856 21.1426 159.7 22.1909H163.015Z" fill="#00AA65"></path><path d="M102.305 36.4199V36.3066C102.305 33.2332 104.458 31.1367 107.333 31.1367C109.769 31.1367 111.582 32.3267 111.823 34.8193H109.472C109.302 33.6016 108.622 32.9497 107.347 32.9497C105.746 32.9497 104.727 34.1963 104.727 36.2925V36.4058C104.727 38.5022 105.69 39.7202 107.361 39.7202C108.622 39.7202 109.5 39.083 109.684 37.7798H111.936C111.681 40.2869 109.882 41.5757 107.389 41.5757C104.075 41.5757 102.305 39.5361 102.305 36.4199Z" fill="#00AA65"></path><path d="M112.814 37.8076V37.6943C112.814 35.3574 114.471 33.8418 116.625 33.8418C118.537 33.8418 120.236 34.9607 120.236 37.6094V38.1758H114.896C114.953 39.4082 115.619 40.1162 116.738 40.1162C117.687 40.1162 118.154 39.7055 118.282 39.0825H120.222C119.981 40.6828 118.707 41.5752 116.681 41.5752C114.443 41.5752 112.814 40.1728 112.814 37.8076ZM118.239 36.9153C118.168 35.7964 117.602 35.258 116.625 35.258C115.704 35.258 115.081 35.8672 114.925 36.9153H118.239Z" fill="#00AA65"></path><path d="M121.582 34.0117H123.636V35.1872C124.004 34.4507 124.812 33.8418 126.044 33.8418C127.503 33.8418 128.537 34.7197 128.537 36.7029V41.4194H126.483V37.0002C126.483 35.9946 126.086 35.5132 125.18 35.5132C124.302 35.5132 123.636 36.0512 123.636 37.1421V41.4194H121.582V34.0117Z" fill="#00AA65"></path><path d="M130.605 39.2231V35.4697H129.656V34.0107H130.605V32.4102H132.645V34.0107H134.203V35.4697H132.645V39.039C132.645 39.6338 132.942 39.917 133.466 39.917C133.778 39.917 134.005 39.8745 134.245 39.7754V41.3618C133.962 41.4609 133.552 41.56 132.999 41.56C131.441 41.56 130.605 40.7671 130.605 39.2231Z" fill="#00AA65"></path><path d="M135.18 37.8076V37.6943C135.18 35.3574 136.837 33.8418 138.99 33.8418C140.902 33.8418 142.602 34.9607 142.602 37.6094V38.1758H137.262C137.319 39.4082 137.984 40.1162 139.103 40.1162C140.052 40.1162 140.52 39.7055 140.647 39.0825H142.588C142.347 40.6828 141.072 41.5752 139.047 41.5752C136.809 41.5752 135.18 40.1728 135.18 37.8076ZM140.605 36.9153C140.534 35.7964 139.967 35.258 138.99 35.258C138.069 35.258 137.446 35.8672 137.29 36.9153H140.605Z" fill="#00AA65"></path><path d="M143.949 34.0117H146.003V35.4282C146.47 34.4365 147.193 33.9126 148.397 33.8984V35.8105C146.881 35.7964 146.003 36.292 146.003 37.7085V41.4194H143.949V34.0117Z" fill="#00AA65"></path></g><defs><clipPath id="clip0_216_1778"><rect width="172.703" height="42.7277" fill="white" transform="translate(0 0.136719)"></rect></clipPath></defs></svg> 