<?xml version="1.0" encoding="UTF-8" standalone="no"?>
<!DOCTYPE svg PUBLIC "-//W3C//DTD SVG 1.1//EN"
 "http://www.w3.org/Graphics/SVG/1.1/DTD/svg11.dtd">
<!-- Generated by graphviz version 12.1.1 (20240910.0053)
 -->
<!-- Title: INFRA Pages: 1 -->
<svg width="398pt" height="296pt"
 viewBox="0.00 0.00 398.37 296.00" xmlns="http://www.w3.org/2000/svg" xmlns:xlink="http://www.w3.org/1999/xlink">
<g id="graph0" class="graph" transform="scale(1 1) rotate(0) translate(4 292)">
<title>INFRA</title>
<polygon fill="white" stroke="none" points="-4,4 -4,-292 394.37,-292 394.37,4 -4,4"/>
<!-- Client -->
<g id="node1" class="node">
<title>Client</title>
<path fill="#b7e0ff" stroke="black" stroke-width="2" d="M118.37,-288C118.37,-288 12,-288 12,-288 6,-288 0,-282 0,-276 0,-276 0,-228 0,-228 0,-222 6,-216 12,-216 12,-216 118.37,-216 118.37,-216 124.37,-216 130.37,-222 130.37,-228 130.37,-228 130.37,-276 130.37,-276 130.37,-282 124.37,-288 118.37,-288"/>
<text text-anchor="middle" x="65.19" y="-256.2" font-family="Arial" font-size="14.00">Client</text>
<text text-anchor="middle" x="65.19" y="-239.4" font-family="Arial" font-size="14.00">(DockerContainer)</text>
</g>
<!-- Server -->
<g id="node2" class="node">
<title>Server</title>
<path fill="#b7e0ff" stroke="black" stroke-width="2" d="M118.37,-180C118.37,-180 12,-180 12,-180 6,-180 0,-174 0,-168 0,-168 0,-120 0,-120 0,-114 6,-108 12,-108 12,-108 118.37,-108 118.37,-108 124.37,-108 130.37,-114 130.37,-120 130.37,-120 130.37,-168 130.37,-168 130.37,-174 124.37,-180 118.37,-180"/>
<text text-anchor="middle" x="65.19" y="-148.2" font-family="Arial" font-size="14.00">Server</text>
<text text-anchor="middle" x="65.19" y="-131.4" font-family="Arial" font-size="14.00">(DockerContainer)</text>
</g>
<!-- Client&#45;&gt;Server -->
<g id="edge1" class="edge">
<title>Client&#45;&gt;Server</title>
<path fill="none" stroke="black" d="M65.19,-215.7C65.19,-207.93 65.19,-199.57 65.19,-191.43"/>
<polygon fill="black" stroke="black" points="68.69,-191.66 65.19,-181.66 61.69,-191.66 68.69,-191.66"/>
</g>
<!-- DB -->
<g id="node3" class="node">
<title>DB</title>
<path fill="#ffcfb3" stroke="black" stroke-width="2" d="M115.98,-65.45C115.98,-69.07 93.21,-72 65.19,-72 37.16,-72 14.39,-69.07 14.39,-65.45 14.39,-65.45 14.39,-6.55 14.39,-6.55 14.39,-2.93 37.16,0 65.19,0 93.21,0 115.98,-2.93 115.98,-6.55 115.98,-6.55 115.98,-65.45 115.98,-65.45"/>
<path fill="none" stroke="black" stroke-width="2" d="M115.98,-65.45C115.98,-61.84 93.21,-58.91 65.19,-58.91 37.16,-58.91 14.39,-61.84 14.39,-65.45"/>
<text text-anchor="middle" x="65.19" y="-40.2" font-family="Arial" font-size="14.00">DB</text>
<text text-anchor="middle" x="65.19" y="-23.4" font-family="Arial" font-size="14.00">(PostgreSQL)</text>
</g>
<!-- Server&#45;&gt;DB -->
<g id="edge2" class="edge">
<title>Server&#45;&gt;DB</title>
<path fill="none" stroke="black" d="M65.19,-107.7C65.19,-99.93 65.19,-91.57 65.19,-83.43"/>
<polygon fill="black" stroke="black" points="68.69,-83.66 65.19,-73.66 61.69,-83.66 68.69,-83.66"/>
</g>
<!-- server&#45;uploads -->
<g id="node4" class="node">
<title>server&#45;uploads</title>
<path fill="#fff5cd" stroke="black" stroke-width="2" d="M256.49,-281.45C256.49,-285.07 232.15,-288 202.19,-288 172.22,-288 147.89,-285.07 147.89,-281.45 147.89,-281.45 147.89,-222.55 147.89,-222.55 147.89,-218.93 172.22,-216 202.19,-216 232.15,-216 256.49,-218.93 256.49,-222.55 256.49,-222.55 256.49,-281.45 256.49,-281.45"/>
<path fill="none" stroke="black" stroke-width="2" d="M256.49,-281.45C256.49,-277.84 232.15,-274.91 202.19,-274.91 172.22,-274.91 147.89,-277.84 147.89,-281.45"/>
<text text-anchor="middle" x="202.19" y="-256.2" font-family="Arial" font-size="14.00">server&#45;uploads</text>
<text text-anchor="middle" x="202.19" y="-239.4" font-family="Arial" font-size="14.00">(Volume)</text>
</g>
<!-- iwc&#45;network -->
<g id="node5" class="node">
<title>iwc&#45;network</title>
<path fill="#e6e6e6" stroke="black" stroke-width="2" d="M378.37,-288C378.37,-288 286,-288 286,-288 280,-288 274,-282 274,-276 274,-276 274,-228 274,-228 274,-222 280,-216 286,-216 286,-216 378.37,-216 378.37,-216 384.37,-216 390.37,-222 390.37,-228 390.37,-228 390.37,-276 390.37,-276 390.37,-282 384.37,-288 378.37,-288"/>
<text text-anchor="middle" x="332.19" y="-256.2" font-family="Arial" font-size="14.00">iwc&#45;network</text>
<text text-anchor="middle" x="332.19" y="-239.4" font-family="Arial" font-size="14.00">(Network)</text>
</g>
</g>
</svg>
