<?xml version="1.0" encoding="UTF-8" standalone="no"?>
<!DOCTYPE svg PUBLIC "-//W3C//DTD SVG 1.1//EN"
 "http://www.w3.org/Graphics/SVG/1.1/DTD/svg11.dtd">
<!-- Generated by graphviz version 12.1.1 (20240910.0053)
 -->
<!-- Title: INFRA Pages: 1 -->
<svg width="465pt" height="512pt"
 viewBox="0.00 0.00 464.97 512.00" xmlns="http://www.w3.org/2000/svg" xmlns:xlink="http://www.w3.org/1999/xlink">
<g id="graph0" class="graph" transform="scale(1 1) rotate(0) translate(4 508)">
<title>INFRA</title>
<polygon fill="white" stroke="none" points="-4,4 -4,-508 460.97,-508 460.97,4 -4,4"/>
<!-- PostgreSQL Database -->
<g id="node1" class="node">
<title>PostgreSQL Database</title>
<path fill="#ffcfb3" stroke="black" stroke-width="2" d="M174.7,-65.45C174.7,-69.07 135.55,-72 87.35,-72 39.15,-72 0,-69.07 0,-65.45 0,-65.45 0,-6.55 0,-6.55 0,-2.93 39.15,0 87.35,0 135.55,0 174.7,-2.93 174.7,-6.55 174.7,-6.55 174.7,-65.45 174.7,-65.45"/>
<path fill="none" stroke="black" stroke-width="2" d="M174.7,-65.45C174.7,-61.84 135.55,-58.91 87.35,-58.91 39.15,-58.91 0,-61.84 0,-65.45"/>
<text text-anchor="middle" x="87.35" y="-40.2" font-family="Arial" font-size="14.00">PostgreSQL Database</text>
<text text-anchor="middle" x="87.35" y="-23.4" font-family="Arial" font-size="14.00">(AWS::RDS::DBInstance)</text>
</g>
<!-- Server -->
<g id="node2" class="node">
<title>Server</title>
<path fill="#b7e0ff" stroke="black" stroke-width="2" d="M219.47,-180C219.47,-180 95.23,-180 95.23,-180 89.23,-180 83.23,-174 83.23,-168 83.23,-168 83.23,-120 83.23,-120 83.23,-114 89.23,-108 95.23,-108 95.23,-108 219.47,-108 219.47,-108 225.47,-108 231.47,-114 231.47,-120 231.47,-120 231.47,-168 231.47,-168 231.47,-174 225.47,-180 219.47,-180"/>
<text text-anchor="middle" x="157.35" y="-148.2" font-family="Arial" font-size="14.00">Server</text>
<text text-anchor="middle" x="157.35" y="-131.4" font-family="Arial" font-size="14.00">(AWS::ECS::Service)</text>
</g>
<!-- Server&#45;&gt;PostgreSQL Database -->
<g id="edge1" class="edge">
<title>Server&#45;&gt;PostgreSQL Database</title>
<path fill="none" stroke="black" d="M134.04,-107.7C128.49,-99.3 122.5,-90.23 116.72,-81.47"/>
<polygon fill="black" stroke="black" points="119.82,-79.82 111.39,-73.41 113.98,-83.68 119.82,-79.82"/>
</g>
<!-- Client -->
<g id="node3" class="node">
<title>Client</title>
<path fill="#b7e0ff" stroke="black" stroke-width="2" d="M219.47,-288C219.47,-288 95.23,-288 95.23,-288 89.23,-288 83.23,-282 83.23,-276 83.23,-276 83.23,-228 83.23,-228 83.23,-222 89.23,-216 95.23,-216 95.23,-216 219.47,-216 219.47,-216 225.47,-216 231.47,-222 231.47,-228 231.47,-228 231.47,-276 231.47,-276 231.47,-282 225.47,-288 219.47,-288"/>
<text text-anchor="middle" x="157.35" y="-256.2" font-family="Arial" font-size="14.00">Client</text>
<text text-anchor="middle" x="157.35" y="-239.4" font-family="Arial" font-size="14.00">(AWS::ECS::Service)</text>
</g>
<!-- Client&#45;&gt;Server -->
<g id="edge2" class="edge">
<title>Client&#45;&gt;Server</title>
<path fill="none" stroke="black" d="M157.35,-215.7C157.35,-207.93 157.35,-199.57 157.35,-191.43"/>
<polygon fill="black" stroke="black" points="160.85,-191.66 157.35,-181.66 153.85,-191.66 160.85,-191.66"/>
</g>
<!-- Nginx Reverse Proxy -->
<g id="node4" class="node">
<title>Nginx Reverse Proxy</title>
<path fill="#e78f81" stroke="black" stroke-width="2" d="M257.47,-396C257.47,-396 133.23,-396 133.23,-396 127.23,-396 121.23,-390 121.23,-384 121.23,-384 121.23,-336 121.23,-336 121.23,-330 127.23,-324 133.23,-324 133.23,-324 257.47,-324 257.47,-324 263.47,-324 269.47,-330 269.47,-336 269.47,-336 269.47,-384 269.47,-384 269.47,-390 263.47,-396 257.47,-396"/>
<text text-anchor="middle" x="195.35" y="-364.2" font-family="Arial" font-size="14.00">Nginx Reverse Proxy</text>
<text text-anchor="middle" x="195.35" y="-347.4" font-family="Arial" font-size="14.00">(AWS::ECS::Service)</text>
</g>
<!-- Nginx Reverse Proxy&#45;&gt;Server -->
<g id="edge4" class="edge">
<title>Nginx Reverse Proxy&#45;&gt;Server</title>
<path fill="none" stroke="black" d="M223.2,-323.7C230.19,-312.86 236.73,-300.47 240.35,-288 249.27,-257.27 253.74,-245.07 240.35,-216 235.65,-205.79 228.68,-196.51 220.74,-188.27"/>
<polygon fill="black" stroke="black" points="223.26,-185.83 213.62,-181.42 218.41,-190.88 223.26,-185.83"/>
</g>
<!-- Nginx Reverse Proxy&#45;&gt;Client -->
<g id="edge3" class="edge">
<title>Nginx Reverse Proxy&#45;&gt;Client</title>
<path fill="none" stroke="black" d="M182.7,-323.7C179.85,-315.75 176.78,-307.19 173.8,-298.87"/>
<polygon fill="black" stroke="black" points="177.13,-297.8 170.46,-289.57 170.54,-300.16 177.13,-297.8"/>
</g>
<!-- Server Uploads Volume -->
<g id="node5" class="node">
<title>Server Uploads Volume</title>
<path fill="#fff5cd" stroke="black" stroke-width="2" d="M456.97,-281.45C456.97,-285.07 419.04,-288 372.35,-288 325.66,-288 287.73,-285.07 287.73,-281.45 287.73,-281.45 287.73,-222.55 287.73,-222.55 287.73,-218.93 325.66,-216 372.35,-216 419.04,-216 456.97,-218.93 456.97,-222.55 456.97,-222.55 456.97,-281.45 456.97,-281.45"/>
<path fill="none" stroke="black" stroke-width="2" d="M456.97,-281.45C456.97,-277.84 419.04,-274.91 372.35,-274.91 325.66,-274.91 287.73,-277.84 287.73,-281.45"/>
<text text-anchor="middle" x="372.35" y="-256.2" font-family="Arial" font-size="14.00">Server Uploads Volume</text>
<text text-anchor="middle" x="372.35" y="-239.4" font-family="Arial" font-size="14.00">(AWS::EFS::FileSystem)</text>
</g>
<!-- Server Uploads Volume&#45;&gt;Server -->
<g id="edge5" class="edge">
<title>Server Uploads Volume&#45;&gt;Server</title>
<path fill="none" stroke="black" d="M304.03,-217.32C283.53,-207.21 260.83,-196.02 239.53,-185.52"/>
<polygon fill="black" stroke="black" points="241.08,-182.38 230.56,-181.1 237.99,-188.66 241.08,-182.38"/>
</g>
<!-- IWC Network -->
<g id="node6" class="node">
<title>IWC Network</title>
<path fill="#e6e6e6" stroke="black" stroke-width="2" d="M126.75,-504C126.75,-504 21.96,-504 21.96,-504 15.96,-504 9.96,-498 9.96,-492 9.96,-492 9.96,-444 9.96,-444 9.96,-438 15.96,-432 21.96,-432 21.96,-432 126.75,-432 126.75,-432 132.75,-432 138.75,-438 138.75,-444 138.75,-444 138.75,-492 138.75,-492 138.75,-498 132.75,-504 126.75,-504"/>
<text text-anchor="middle" x="74.35" y="-472.2" font-family="Arial" font-size="14.00">IWC Network</text>
<text text-anchor="middle" x="74.35" y="-455.4" font-family="Arial" font-size="14.00">(AWS::EC2::VPC)</text>
</g>
<!-- IWC Network&#45;&gt;PostgreSQL Database -->
<g id="edge6" class="edge">
<title>IWC Network&#45;&gt;PostgreSQL Database</title>
<path fill="none" stroke="black" d="M59.21,-431.51C55.18,-420.35 51.38,-407.85 49.35,-396 30.3,-284.52 56.99,-151.82 74.4,-83.21"/>
<polygon fill="black" stroke="black" points="77.71,-84.39 76.83,-73.83 70.93,-82.63 77.71,-84.39"/>
</g>
<!-- IWC Network&#45;&gt;Server -->
<g id="edge7" class="edge">
<title>IWC Network&#45;&gt;Server</title>
<path fill="none" stroke="black" d="M65.5,-431.77C54.72,-381.34 41.72,-286.85 74.35,-216 79.05,-205.79 86.02,-196.51 93.96,-188.27"/>
<polygon fill="black" stroke="black" points="96.3,-190.88 101.08,-181.42 91.45,-185.83 96.3,-190.88"/>
</g>
<!-- IWC Network&#45;&gt;Client -->
<g id="edge8" class="edge">
<title>IWC Network&#45;&gt;Client</title>
<path fill="none" stroke="black" d="M80.62,-431.61C86.59,-402.04 96.96,-359.19 112.35,-324 116.18,-315.25 120.98,-306.34 126.02,-297.92"/>
<polygon fill="black" stroke="black" points="128.9,-299.93 131.2,-289.59 122.95,-296.23 128.9,-299.93"/>
</g>
<!-- IWC Network&#45;&gt;Nginx Reverse Proxy -->
<g id="edge9" class="edge">
<title>IWC Network&#45;&gt;Nginx Reverse Proxy</title>
<path fill="none" stroke="black" d="M114.64,-431.7C124.95,-422.67 136.14,-412.87 146.81,-403.52"/>
<polygon fill="black" stroke="black" points="148.88,-406.36 154.1,-397.14 144.27,-401.1 148.88,-406.36"/>
</g>
</g>
</svg>
